<svg width="1200" height="630" viewBox="0 0 1200 630" fill="none" xmlns="http://www.w3.org/2000/svg">
  <rect width="1200" height="630" fill="#f6f8f5"/>
  <path d="M0 470C145 415 250 445 365 500C510 570 655 575 800 515C930 462 1035 420 1200 456V630H0V470Z" fill="#d9efe8"/>
  <path d="M0 520C155 470 285 505 410 552C555 607 705 612 850 557C970 511 1050 485 1200 512V630H0V520Z" fill="#b9e1d7"/>
  <g opacity="0.42">
    <path d="M95 102H310M145 152H420M845 120H1085M910 172H1120" stroke="#7aaea2" stroke-width="10" stroke-linecap="round"/>
  </g>
  <g transform="translate(92 116)">
    <path d="M206 0C101.07 0 16 85.07 16 190C16 327.69 194.83 418.58 200.9 421.57C204.07 423.15 207.93 423.15 211.1 421.57C217.17 418.58 396 327.69 396 190C396 85.07 310.93 0 206 0Z" fill="#0f766e"/>
    <circle cx="206" cy="176" r="149" fill="white"/>
    <path d="M148 263L148 109C148 89.64 163.64 74 183 74H229C248.36 74 264 89.64 264 109L264 263" stroke="#cfeee7" stroke-width="14" stroke-linecap="round" fill="none"/>
    <g stroke="#0b5c55" stroke-width="9" stroke-linecap="round" stroke-linejoin="round" fill="none">
      <circle cx="117" cy="206" r="47"/>
      <circle cx="295" cy="206" r="47"/>
      <circle cx="192" cy="206" r="9" fill="#0b5c55"/>
      <polygon points="117,206 192,206 262,118 174,118"/>
      <line x1="192" y1="206" x2="174" y2="118"/>
      <line x1="262" y1="118" x2="295" y2="206"/>
      <line x1="174" y1="118" x2="169" y2="96"/>
      <path d="M155 96C161 96 174 94 183 99" stroke-width="10"/>
      <line x1="262" y1="118" x2="258" y2="96"/>
      <path d="M249 96Q258 96 271 90" stroke-width="9"/>
    </g>
  </g>
  <g transform="translate(525 146)">
    <text x="0" y="72" fill="#123c37" font-family="Inter, ui-sans-serif, system-ui, -apple-system, BlinkMacSystemFont, 'Segoe UI', sans-serif" font-size="72" font-weight="800">Bike</text>
    <text x="0" y="150" fill="#123c37" font-family="Inter, ui-sans-serif, system-ui, -apple-system, BlinkMacSystemFont, 'Segoe UI', sans-serif" font-size="72" font-weight="800">Neuks</text>
    <text x="3" y="226" fill="#31534e" font-family="Inter, ui-sans-serif, system-ui, -apple-system, BlinkMacSystemFont, 'Segoe UI', sans-serif" font-size="34" font-weight="500">Find nearby cycle parking</text>
    <text x="3" y="272" fill="#31534e" font-family="Inter, ui-sans-serif, system-ui, -apple-system, BlinkMacSystemFont, 'Segoe UI', sans-serif" font-size="34" font-weight="500">spaces across Edinburgh.</text>
  </g>
</svg>
